<svg width="124" height="32" viewBox="0 0 124 32" fill="none" xmlns="http://www.w3.org/2000/svg">
<g id="Socail Icon">
<g id="ICon">
<circle id="Ellipse 2612" cx="16" cy="16" r="15.5" stroke="#F66F4D"/>
<path id="Vector" d="M16.8946 22V16.7982H18.6636L18.9284 14.576H16.8945V13.1573C16.8945 12.514 17.0597 12.0755 17.9124 12.0755L19 12.075V10.0876C18.8119 10.0605 18.1662 10 17.4152 10C15.8471 10 14.7735 11.0355 14.7735 12.9373V14.576H13V16.7982H14.7735V21.9999L16.8946 22Z" fill="#F66F4D"/>
</g>
<g id="ICon_2">
<circle id="Ellipse 2614" cx="108" cy="16" r="15.5" stroke="#5B5F62"/>
<path id="Vector_2" d="M111.023 10.0027V10H111.726L111.983 10.0506C112.154 10.0835 112.31 10.1265 112.45 10.1798C112.589 10.2331 112.725 10.2952 112.855 10.3663C112.986 10.4373 113.105 10.5097 113.211 10.5834C113.317 10.6562 113.411 10.7334 113.495 10.8151C113.578 10.8977 113.707 10.919 113.883 10.879C114.059 10.8391 114.248 10.7836 114.451 10.7125C114.654 10.6415 114.855 10.5616 115.053 10.4728C115.252 10.384 115.372 10.3276 115.416 10.3037C115.458 10.2788 115.481 10.2655 115.483 10.2637L115.486 10.2597L115.5 10.253L115.513 10.2464L115.527 10.2397L115.54 10.2331L115.543 10.2291L115.547 10.2264L115.551 10.2238L115.554 10.2198L115.567 10.2158L115.581 10.2131L115.578 10.2331L115.574 10.253L115.567 10.273L115.56 10.293L115.554 10.3063L115.547 10.3196L115.54 10.3396C115.536 10.3529 115.531 10.3707 115.527 10.3929C115.522 10.4151 115.479 10.5039 115.398 10.6593C115.317 10.8147 115.215 10.9723 115.094 11.1321C114.972 11.2919 114.863 11.4126 114.766 11.4943C114.669 11.5769 114.605 11.6346 114.573 11.6675C114.541 11.7012 114.503 11.7323 114.458 11.7607L114.39 11.8047L114.377 11.8113L114.363 11.818L114.361 11.822L114.357 11.8246L114.353 11.8273L114.35 11.8313L114.336 11.838L114.323 11.8446L114.32 11.8486L114.316 11.8513L114.312 11.8539L114.309 11.8579L114.307 11.8619L114.303 11.8646L114.298 11.8673L114.296 11.8713H114.363L114.742 11.7913C114.995 11.7381 115.236 11.6737 115.466 11.5982L115.831 11.4784L115.872 11.465L115.892 11.4584L115.905 11.4517L115.919 11.4451L115.932 11.4384L115.946 11.4317L115.973 11.4277L116 11.4251V11.4517L115.993 11.4544L115.986 11.4584L115.984 11.4624L115.98 11.465L115.976 11.4677L115.973 11.4717L115.97 11.4757L115.966 11.4784L115.962 11.481L115.959 11.485L115.957 11.489L115.953 11.4917L115.946 11.505L115.939 11.5183L115.935 11.521C115.933 11.5236 115.876 11.5991 115.763 11.7474C115.651 11.8966 115.59 11.972 115.581 11.9738C115.572 11.9765 115.559 11.9898 115.543 12.0138C115.528 12.0386 115.432 12.1376 115.256 12.3108C115.08 12.4839 114.908 12.638 114.739 12.7729C114.57 12.9088 114.484 13.0757 114.482 13.2737C114.48 13.4708 114.469 13.6937 114.451 13.9423C114.433 14.1909 114.4 14.4595 114.35 14.748C114.3 15.0366 114.224 15.3629 114.12 15.727C114.016 16.091 113.89 16.4462 113.741 16.7924C113.592 17.1387 113.437 17.4495 113.275 17.7248C113.112 18 112.963 18.2331 112.828 18.424C112.693 18.6149 112.555 18.7947 112.416 18.9634C112.276 19.1321 112.099 19.3221 111.885 19.5334C111.671 19.7439 111.554 19.8593 111.534 19.8797C111.513 19.8992 111.425 19.9721 111.269 20.0981C111.114 20.225 110.947 20.352 110.768 20.479C110.591 20.6051 110.427 20.7103 110.279 20.7947C110.13 20.8791 109.95 20.9754 109.74 21.0837C109.531 21.1929 109.305 21.2941 109.061 21.3873C108.818 21.4805 108.561 21.5672 108.29 21.647C108.02 21.727 107.758 21.7891 107.506 21.8335C107.253 21.8779 106.967 21.9156 106.647 21.9468L106.167 21.9933V22H105.288V21.9933L105.173 21.9867C105.096 21.9822 105.033 21.9778 104.983 21.9734C104.934 21.969 104.747 21.9445 104.422 21.9001C104.097 21.8557 103.843 21.8113 103.658 21.7669C103.473 21.7225 103.198 21.6382 102.833 21.5139C102.468 21.3896 102.155 21.264 101.895 21.137C101.637 21.0109 101.474 20.931 101.408 20.8972C101.344 20.8644 101.271 20.8236 101.189 20.7747L101.068 20.7015L101.065 20.6975L101.061 20.6948L101.057 20.6922L101.054 20.6881L101.041 20.6815L101.027 20.6748L101.024 20.6708L101.02 20.6681L101.016 20.6655L101.014 20.6615L101.011 20.6575L101.007 20.6548H101V20.6282L101.014 20.6309L101.027 20.6348L101.088 20.6415C101.128 20.6459 101.239 20.6526 101.419 20.6615C101.6 20.6704 101.791 20.6704 101.994 20.6615C102.197 20.6526 102.404 20.6326 102.616 20.6016C102.828 20.5705 103.078 20.5172 103.367 20.4417C103.656 20.3663 103.921 20.2766 104.162 20.1727C104.403 20.0679 104.574 19.9898 104.676 19.9383C104.777 19.8877 104.931 19.7936 105.139 19.6559L105.45 19.4495L105.453 19.4455L105.457 19.4429L105.461 19.4402L105.463 19.4362L105.466 19.4321L105.47 19.4295L105.474 19.4268L105.477 19.4229L105.491 19.4189L105.504 19.4162L105.507 19.4029L105.511 19.3895L105.515 19.3869L105.518 19.3829L105.409 19.3763C105.337 19.3719 105.267 19.3673 105.2 19.3629C105.132 19.3585 105.026 19.3385 104.882 19.303C104.738 19.2674 104.582 19.2142 104.415 19.1432C104.248 19.0722 104.086 18.9878 103.928 18.8901C103.771 18.7925 103.656 18.7112 103.586 18.6464C103.517 18.5825 103.427 18.4919 103.316 18.3747C103.206 18.2566 103.11 18.1354 103.029 18.0111C102.948 17.8868 102.87 17.7434 102.796 17.5809L102.684 17.3385L102.677 17.3185L102.67 17.2985L102.666 17.2853L102.664 17.2719L102.684 17.2745L102.704 17.2786L102.853 17.2985C102.952 17.3119 103.108 17.3163 103.32 17.3119C103.532 17.3075 103.678 17.2986 103.759 17.2853C103.84 17.2719 103.89 17.263 103.908 17.2586L103.935 17.252L103.969 17.2453L104.003 17.2386L104.005 17.2347L104.009 17.2319L104.014 17.2293L104.016 17.2253L103.989 17.2187L103.962 17.212L103.935 17.2053L103.908 17.1986L103.881 17.192C103.863 17.1876 103.831 17.1787 103.786 17.1653C103.741 17.1521 103.619 17.1032 103.421 17.0189C103.223 16.9345 103.065 16.8524 102.948 16.7725C102.83 16.6923 102.718 16.6047 102.612 16.5101C102.507 16.4142 102.391 16.2908 102.265 16.1399C102.138 15.9889 102.026 15.8135 101.927 15.6137C101.827 15.4139 101.753 15.2231 101.703 15.041C101.654 14.8601 101.621 14.6751 101.606 14.4883L101.582 14.2087L101.595 14.2113L101.609 14.2153L101.622 14.222L101.636 14.2286L101.649 14.2353L101.663 14.242L101.872 14.3352C102.012 14.3973 102.186 14.4506 102.393 14.495C102.601 14.5394 102.725 14.5638 102.765 14.5682L102.826 14.5749H102.948L102.945 14.5709L102.941 14.5682L102.937 14.5656L102.934 14.5616L102.931 14.5576L102.927 14.555L102.923 14.5523L102.921 14.5483L102.907 14.5416L102.894 14.535L102.891 14.531L102.887 14.5283L102.883 14.5257L102.88 14.5217L102.867 14.515L102.853 14.5083L102.85 14.5044C102.848 14.5026 102.809 14.4741 102.734 14.4191C102.66 14.3632 102.583 14.2908 102.501 14.202C102.42 14.1132 102.339 14.02 102.258 13.9223C102.177 13.8244 102.104 13.7197 102.041 13.6093C101.978 13.4983 101.912 13.3572 101.841 13.1858C101.772 13.0153 101.719 12.8435 101.683 12.6704C101.647 12.4972 101.627 12.3263 101.622 12.1576C101.618 11.9889 101.622 11.8446 101.636 11.7248C101.649 11.6049 101.676 11.4695 101.717 11.3185C101.757 11.1676 101.816 11.0078 101.893 10.8391L102.008 10.586L102.014 10.566L102.021 10.5461L102.025 10.5434L102.028 10.5394L102.031 10.5354L102.035 10.5327L102.039 10.5354L102.041 10.5394L102.044 10.5434L102.048 10.5461L102.052 10.5487L102.055 10.5527L102.058 10.5567L102.062 10.5594L102.069 10.5727L102.075 10.586L102.079 10.5887L102.082 10.5927L102.265 10.7925C102.386 10.9256 102.531 11.0744 102.697 11.2386C102.864 11.4029 102.957 11.4881 102.975 11.4943C102.993 11.5014 103.015 11.5219 103.042 11.5556C103.069 11.5885 103.16 11.667 103.313 11.7913C103.466 11.9156 103.667 12.0599 103.915 12.2242C104.163 12.3884 104.438 12.5505 104.74 12.7103C105.042 12.8701 105.367 13.0144 105.714 13.1432C106.061 13.2719 106.304 13.3563 106.444 13.3962C106.584 13.4362 106.823 13.4872 107.161 13.5494C107.499 13.6116 107.754 13.6515 107.925 13.6693C108.096 13.687 108.214 13.6972 108.277 13.6999L108.372 13.7026L108.369 13.6826L108.365 13.6626L108.338 13.4961C108.32 13.3851 108.311 13.2297 108.311 13.03C108.311 12.8302 108.326 12.646 108.358 12.4773C108.39 12.3085 108.437 12.1376 108.5 11.9645C108.563 11.7913 108.625 11.6524 108.685 11.5476C108.747 11.4437 108.827 11.3252 108.926 11.192C109.025 11.0588 109.154 10.9212 109.312 10.7791C109.469 10.6371 109.65 10.5105 109.853 10.3996C110.055 10.2886 110.243 10.2042 110.414 10.1465C110.585 10.0888 110.73 10.0511 110.847 10.0333C110.964 10.0155 111.023 10.0053 111.023 10.0027Z" fill="#5B5F62"/>
</g>
<g id="ICon_3">
<circle id="Ellipse 2613" cx="62" cy="16" r="15.5" stroke="#5B5F62"/>
<path id="Vector_3" fill-rule="evenodd" clip-rule="evenodd" d="M58.07 10.315C58.4512 10.1667 58.8877 10.0654 59.5265 10.0363C60.1666 10.0068 60.3712 10 62.0007 10C63.6302 10 63.8347 10.0072 64.4745 10.0363C65.1128 10.0649 65.549 10.1667 65.9309 10.315C66.325 10.4682 66.6599 10.6732 66.9933 11.0071C67.3268 11.341 67.5319 11.6754 67.6855 12.07C67.8338 12.4511 67.9351 12.8875 67.9641 13.5263C67.9932 14.1661 68 14.3706 68 16C68 17.6294 67.9932 17.8335 67.9641 18.4737C67.9355 19.1124 67.8338 19.5487 67.6855 19.9301C67.5319 20.3245 67.3273 20.6595 66.9933 20.9929C66.6594 21.3263 66.325 21.5314 65.9305 21.685C65.549 21.8333 65.1128 21.9346 64.474 21.9637C63.8343 21.9932 63.6297 22 62.0003 22C60.3708 22 60.1666 21.9927 59.5265 21.9637C58.8877 21.9346 58.4519 21.8333 58.07 21.685C57.6753 21.5314 57.341 21.3262 57.0071 20.9929C56.6732 20.6597 56.4682 20.3245 56.315 19.9301C56.1667 19.5487 56.0654 19.1125 56.0363 18.4737C56.0068 17.8339 56 17.6294 56 16C56 14.3706 56.0068 14.1661 56.0363 13.5263C56.0654 12.8876 56.1667 12.4514 56.315 12.07C56.4682 11.6752 56.6732 11.3405 57.0071 11.0071C57.3411 10.6737 57.6753 10.4682 58.07 10.315ZM61.9997 14C60.8953 14 60 14.8955 60 16C60 17.1045 60.8953 18 61.9997 18C63.1043 18 64 17.1043 64 16C64 14.8957 63.1043 14 61.9997 14ZM58.6667 16C58.6667 14.1594 60.1586 12.6667 61.9997 12.6667C63.8405 12.6667 65.3333 14.1591 65.3333 16C65.3333 17.8409 63.8405 19.3333 61.9997 19.3333C60.1586 19.3333 58.6667 17.8407 58.6667 16ZM66 12.6667C66.3682 12.6667 66.6667 12.3682 66.6667 12C66.6667 11.6318 66.3682 11.3333 66 11.3333C65.6318 11.3333 65.3333 11.6318 65.3333 12C65.3333 12.3682 65.6318 12.6667 66 12.6667Z" fill="#5B5F62"/>
</g>
</g>
</svg>
